Coordinates
version=1
nRows=8
nColumns=36
inDegrees=yes

Units are S.I. units (second, meters, Newtons, ...)
If the header above contains a line with 'inDegrees', this indicates whether rotational values are in degrees (yes) or radians (no).

endheader
time	pelvis_tilt	pelvis_list	pelvis_rotation	pelvis_tx	pelvis_ty	pelvis_tz	hip_flexion_r	hip_adduction_r	hip_rotation_r	knee_angle_r	knee_angle_r_beta	ankle_angle_r	subtalar_angle_r	mtp_angle_r	hip_flexion_l	hip_adduction_l	hip_rotation_l	knee_angle_l	knee_angle_l_beta	ankle_angle_l	subtalar_angle_l	mtp_angle_l	lumbar_extension	lumbar_bending	lumbar_rotation	arm_flex_r	arm_add_r	arm_rot_r	elbow_flex_r	pro_sup_r	arm_flex_l	arm_add_l	arm_rot_l	elbow_flex_l	pro_sup_l
      4.80000000	     -2.04566005	     -4.68675390	    -20.96006070	      0.94711158	      0.77670387	      0.18146305	     37.14461393	     14.01982584	     -2.97692276	     71.61597527	      1.24993457	     30.75757126	    -11.13587470	     -7.49999987	     58.62855149	    -14.09710520	     10.48413574	     23.39098418	      0.40824969	    -10.01067075	      0.52952164	     -7.49999987	    -18.44952739	     11.22456549	      7.04606380	     47.29245187	     -8.91467266	     65.15306610	    130.84070291	     87.34487870	     34.17384699	     -1.67554301	     56.48186644	    132.96539265	     99.66784916
      4.81666670	     -2.10452726	     -4.50655921	    -20.72868798	      0.94731453	      0.78242019	      0.18230971	     36.85625272	     13.87831650	     -2.82574941	     70.90243232	      1.23748089	     30.68246314	    -11.04890587	     -7.49999987	     58.59136038	    -13.82817721	     10.29797946	     23.76312459	      0.41474476	    -10.04283145	      0.46908626	     -7.49999987	    -17.95713668	     10.98766218	      7.09371586	     47.47167825	     -8.73292204	     65.10552625	    130.94039896	     87.35587345	     34.31193989	     -1.68160578	     56.48110446	    133.02179115	     99.67170048
      4.83333330	     -1.93726437	     -4.13811350	    -20.55883073	      0.94736981	      0.78954695	      0.18188244	     36.12149430	     13.47161573	     -2.46205463	     69.80030792	      1.21824519	     30.10912586	    -11.29766390	     -7.49999987	     58.23520011	    -13.43253261	      9.50709645	     24.25938949	      0.42340622	    -10.03825782	     -0.03297853	     -7.49999987	    -17.62670827	     10.31639948	      6.38720182	     47.43300945	     -8.15506831	     65.23559245	    131.79524520	     87.48046250	     35.23498059	     -1.83269085	     56.23826699	    133.62866003	     99.58002165
      4.85000000	     -1.73237254	     -4.06236824	    -20.42183947	      0.94805800	      0.79669628	      0.18188009	     34.96592969	     13.26708881	     -2.14169944	     68.22072669	      1.19067630	     29.63499951	    -11.30694250	     -7.49999987	     57.47615313	    -13.29174715	      8.88246890	     24.02616334	      0.41933566	    -10.23893009	     -0.27783044	     -7.49999987	    -17.48855109	     10.08671115	      6.17413286	     47.59315927	     -7.90943822	     65.73120614	    131.78775139	     86.55184480	     35.87196764	     -1.51802094	     55.58126539	    134.43066481	     98.93207297
      4.86666670	     -1.35777671	     -4.09558416	    -20.23206612	      0.94831687	      0.80829725	      0.18108099	     33.62544166	     13.13480668	     -1.85348059	     66.36713573	      1.15832503	     28.75139606	    -11.57658880	     -7.49999987	     56.39471557	    -13.13008666	      8.13963817	     23.57443426	      0.41145150	    -10.48011964	     -0.16902253	     -7.49999987	    -17.76384205	     10.05878576	      5.64903605	     47.46126649	     -7.58118465	     66.23024394	    131.23678081	     85.36612211	     35.64905345	     -1.78091662	     55.71909932	    134.81309513	     97.44930131
      4.88333330	     -0.92525736	     -4.04579995	    -19.88668449	      0.94813766	      0.81581264	      0.18249648	     32.25815594	     12.84197170	     -1.62055739	     64.59561134	      1.12740610	     28.05031566	    -11.33745447	     -7.49999987	     55.38681982	    -12.89609536	      7.54990563	     23.46457131	      0.40953403	    -10.63341012	     -0.44998183	     -7.49999987	    -17.90827918	      9.75112546	      5.34652859	     47.09624725	     -7.67217404	     65.85208301	    130.07071734	     85.76205651	     35.73073063	     -2.16239718	     56.07066835	    134.42686710	     97.70134905
      4.90000000	     -0.65138724	     -4.14227318	    -19.51690374	      0.94335428	      0.82633080	      0.18559223	     31.12290105	     12.88584272	     -1.51076522	     62.68260129	      1.09401778	     27.10986043	    -11.52276072	     -7.49999987	     54.28091414	    -12.80363341	      7.13609027	     22.91749039	      0.39998566	    -11.21065008	     -0.45283790	     -7.49999987	    -18.05856675	      9.37698702	      5.05607277	     46.59835744	     -7.49565721	     65.00968096	    129.61950069	     85.97717132	     35.46626529	     -3.01255884	     57.41990433	    134.25939802	     97.85836641
      4.91666670	     -0.12739133	     -4.05628707	    -19.13044173	      0.94856323	      0.83281303	      0.18247609	     29.78573758	     12.45213008	     -1.35968955	     61.15966398	      1.06743751	     26.27384733	    -11.70606185	     -7.49999987	     53.00736900	    -12.56808818	      6.38252773	     22.83798529	      0.39859804	    -11.10571832	     -0.34236624	     -7.49999987	    -18.04551473	      8.91107936	      4.49649354	     46.18280578	     -7.18379826	     64.05267525	    130.10607982	     86.34403974	     35.45608727	     -3.54933190	     58.45930626	    134.18835687	     98.08620432
